# xmcd
#
# Track frame offsets:
#	150
#	14175
#	30275
#	44625
#	60075
#	74450
#	89925
#	105450
#	123650
#	141150
#	159175
#	175650
#	189300
#	203050
#	219650
#	239725
#	257250
#
# Disc length: 3734 seconds
#
# Revision: 0
# Processed by: cddbd v1.5.2PL0 Copyright (c) Steve Scherf et al.
# Submitted via: EasyCDDAExtractor 4.6.9.1
#
DISCID=f10e9411
DTITLE=Tubby Justice - Amarantus
DYEAR=1900
DGENRE=Blues
TTITLE0=Essence
TTITLE1=Amarantus
TTITLE2=Always want more
TTITLE3=Wine in a taxi
TTITLE4=What di Suzie say?
TTITLE5=I thought they were seagulls
TTITLE6=Untitled
TTITLE7=One Sunday (ode to the architects bride)
TTITLE8=Laugh and sigh
TTITLE9=Walking on eggshells
TTITLE10=More fool me
TTITLE11=Desperate to be wrong
TTITLE12=Gossip
TTITLE13=Naked eyes
TTITLE14=Looking good
TTITLE15=In the middle of the night
TTITLE16=Einsteins baby
EXTD=
EXTT0=
EXTT1=
EXTT2=
EXTT3=
EXTT4=
EXTT5=
EXTT6=
EXTT7=
EXTT8=
EXTT9=
EXTT10=
EXTT11=
EXTT12=
EXTT13=
EXTT14=
EXTT15=
EXTT16=
PLAYORDER=
